<!--?xml version="1.0" encoding="UTF-8" standalone="no"?-->
<svg xmlns:dc="http://purl.org/dc/elements/1.1/" xmlns:cc="http://creativecommons.org/ns#" xmlns:rdf="http://www.w3.org/1999/02/22-rdf-syntax-ns#" xmlns:svg="http://www.w3.org/2000/svg" xmlns="http://www.w3.org/2000/svg" viewBox="0 0 1056.16 400.32001" height="400.32001" width="1056.16" xml:space="preserve" id="svg2" version="1.1" style=""><metadata id="metadata8"><rdf:rdf><cc:work rdf:about=""><dc:format>image/svg+xml</dc:format><dc:type rdf:resource="http://purl.org/dc/dcmitype/StillImage"></dc:type></cc:work></rdf:rdf></metadata><defs id="defs6"><clipPath id="clipPath18" clipPathUnits="userSpaceOnUse"><path style="clip-rule:evenodd" id="path16" d="M 0,0 H 792.12 V 300.24 H 0 Z" class="iSZqAghU_0"></path></clipPath></defs><g transform="matrix(1.3333333,0,0,-1.3333333,0,400.32)" id="g10"><g id="g12"><g clip-path="url(#clipPath18)" id="g14"><path id="path20" style="fill:#212529;fill-opacity:1;fill-rule:evenodd;stroke:none" d="m 0,-311.86 h 792.1 v 612.1 H 0 Z" class="iSZqAghU_1"></path></g></g><path id="path22" style="fill:#202428;fill-opacity:1;fill-rule:evenodd;stroke:none" d="m 190.05,182.1 h 10.43 l 11.87,-33.04 c 1.54,-4.19 2.92,-8.6 4.14,-13.22 1.11,4.44 2.43,8.78 3.97,13 l 12.2,33.26 h 9.67 l -21.7,-58.03 c -2.33,-6.27 -4.14,-10.58 -5.43,-12.95 -1.72,-3.18 -3.69,-5.52 -5.91,-7.01 -2.22,-1.48 -4.87,-2.23 -7.95,-2.23 -1.87,0 -3.94,0.4 -6.24,1.18 l -1.07,9.08 c 2.11,-0.57 3.96,-0.86 5.53,-0.86 2.15,0 3.87,0.36 5.16,1.08 1.29,0.72 2.35,1.72 3.17,3.01 0.61,0.97 1.6,3.37 2.96,7.2 0.18,0.54 0.46,1.32 0.86,2.36 z m -85.28,21.71 h 15.69 l 18.64,-55.77 c 1.72,-5.2 2.97,-9.08 3.76,-11.66 0.9,2.86 2.29,7.07 4.19,12.62 l 18.86,54.81 h 14.03 v -78.77 h -10.05 v 65.93 L 147,125.04 h -9.4 l -22.79,67.06 v -67.06 h -10.04 z m 505.5,-28.37 c -4.44,0 -8.18,-1.49 -11.21,-4.46 -3.02,-2.97 -4.7,-6.95 -5.02,-11.93 h 31.86 c -0.43,4.8 -1.64,8.4 -3.65,10.8 -3.08,3.73 -7.08,5.59 -11.98,5.59 z m -232.32,0 c -4.44,0 -8.18,-1.49 -11.21,-4.46 -3.02,-2.97 -4.7,-6.95 -5.02,-11.93 h 31.86 c -0.43,4.8 -1.64,8.4 -3.65,10.8 -3.08,3.73 -7.08,5.59 -11.98,5.59 z m 129.4,6.66 h 9.67 v -57.06 h -9.67 z m -60.99,0 h 10.21 l 12.25,-34.17 c 1.32,-3.69 2.54,-7.52 3.65,-11.5 0.86,3.01 2.06,6.63 3.6,10.85 l 12.68,34.82 h 9.94 l -21.6,-57.06 h -9.03 z m 220.21,1.29 c 4.47,0 8.4,-0.64 11.79,-1.93 3.38,-1.29 5.88,-3.04 7.49,-5.24 1.62,-2.2 2.73,-5.15 3.34,-8.84 l -9.46,-1.29 c -0.43,2.94 -1.68,5.23 -3.73,6.88 -2.06,1.65 -4.97,2.47 -8.74,2.47 -4.44,0 -7.61,-0.74 -9.51,-2.2 -1.89,-1.47 -2.84,-3.19 -2.84,-5.16 0,-1.26 0.39,-2.38 1.18,-3.39 0.79,-1.04 2.02,-1.9 3.71,-2.58 0.96,-0.35 3.81,-1.18 8.54,-2.47 6.84,-1.82 11.61,-3.32 14.32,-4.48 2.7,-1.17 4.82,-2.86 6.36,-5.08 1.55,-2.22 2.32,-4.98 2.32,-8.28 0,-3.22 -0.94,-6.26 -2.83,-9.1 -1.88,-2.85 -4.59,-5.05 -8.14,-6.61 -3.54,-1.56 -7.55,-2.34 -12.03,-2.34 -7.42,0 -13.07,1.54 -16.95,4.62 -3.89,3.08 -6.37,7.65 -7.44,13.7 l 9.56,1.51 c 0.54,-3.84 2.03,-6.77 4.49,-8.81 2.45,-2.05 5.88,-3.07 10.28,-3.07 4.45,0 7.74,0.91 9.89,2.72 2.15,1.8 3.23,3.93 3.23,6.36 0,2.19 -0.95,3.91 -2.85,5.16 -1.33,0.86 -4.62,1.95 -9.89,3.28 -7.09,1.79 -12.01,3.34 -14.75,4.65 -2.74,1.3 -4.82,3.11 -6.23,5.42 -1.42,2.31 -2.12,4.87 -2.12,7.66 0,2.54 0.58,4.9 1.74,7.07 1.17,2.16 2.75,3.96 4.76,5.4 1.5,1.11 3.55,2.05 6.15,2.82 2.6,0.77 5.38,1.15 8.36,1.15 z m -56.41,0 c 7.63,0 13.86,-2.6 18.7,-7.79 4.83,-5.19 7.25,-12.5 7.25,-21.92 0,-0.57 -0.02,-1.43 -0.05,-2.58 H 593.5 c 0.36,-6.27 2.13,-11.07 5.32,-14.4 3.19,-3.33 7.17,-5 11.93,-5 3.55,0 6.57,0.93 9.08,2.8 2.51,1.86 4.5,4.83 5.97,8.92 l 9.99,-1.24 c -1.58,-5.84 -4.5,-10.37 -8.76,-13.59 -4.26,-3.23 -9.71,-4.84 -16.33,-4.84 -8.35,0 -14.97,2.57 -19.86,7.71 -4.89,5.14 -7.33,12.35 -7.33,21.63 0,9.6 2.47,17.05 7.41,22.35 4.95,5.3 11.36,7.95 19.24,7.95 z m -55.46,0 c 6.2,0 11.27,-1.57 15.21,-4.7 3.94,-3.13 6.47,-7.59 7.58,-13.35 l -9.41,-1.45 c -0.89,3.83 -2.48,6.71 -4.75,8.65 -2.28,1.93 -5.03,2.9 -8.25,2.9 -4.87,0 -8.83,-1.75 -11.87,-5.24 -3.05,-3.49 -4.57,-9.02 -4.57,-16.58 0,-7.66 1.47,-13.23 4.4,-16.71 2.94,-3.47 6.77,-5.21 11.5,-5.21 3.8,0 6.97,1.17 9.51,3.5 2.55,2.32 4.16,5.91 4.84,10.74 l 9.51,-1.23 c -1.04,-6.56 -3.7,-11.69 -7.98,-15.4 -4.28,-3.71 -9.54,-5.56 -15.77,-5.56 -7.81,0 -14.09,2.55 -18.83,7.66 -4.75,5.1 -7.12,12.42 -7.12,21.95 0,6.16 1.02,11.55 3.06,16.17 2.04,4.62 5.15,8.09 9.32,10.4 4.18,2.31 8.72,3.46 13.62,3.46 z m -118.13,0 c 3.26,0 6.57,-1.04 9.94,-3.12 l -3.33,-8.97 c -2.37,1.4 -4.73,2.1 -7.1,2.1 -2.11,0 -4.01,-0.64 -5.69,-1.91 -1.68,-1.27 -2.88,-3.04 -3.6,-5.29 -1.08,-3.44 -1.61,-7.2 -1.61,-11.29 v -29.87 h -9.67 v 57.06 h 8.7 v -8.65 c 2.22,4.05 4.27,6.72 6.15,8.01 1.88,1.29 3.95,1.93 6.21,1.93 z m -58.73,0 c 7.63,0 13.86,-2.6 18.7,-7.79 4.83,-5.19 7.25,-12.5 7.25,-21.92 0,-0.57 -0.02,-1.43 -0.05,-2.58 h -42.56 c 0.36,-6.27 2.13,-11.07 5.32,-14.4 3.19,-3.33 7.17,-5 11.93,-5 3.55,0 6.57,0.93 9.08,2.8 2.51,1.86 4.5,4.83 5.97,8.92 l 9.99,-1.24 c -1.58,-5.84 -4.5,-10.37 -8.76,-13.59 -4.26,-3.23 -9.71,-4.84 -16.33,-4.84 -8.35,0 -14.97,2.57 -19.86,7.71 -4.89,5.14 -7.33,12.35 -7.33,21.63 0,9.6 2.47,17.05 7.41,22.35 4.95,5.3 11.36,7.95 19.24,7.95 z m 129.51,20.42 h 9.67 v -11.12 h -9.67 z m -197.83,1.34 c 5.84,0 10.98,-0.94 15.44,-2.82 4.46,-1.88 7.89,-4.65 10.29,-8.3 2.4,-3.65 3.69,-7.79 3.87,-12.41 l -9.99,-0.75 c -0.54,4.97 -2.36,8.74 -5.46,11.28 -3.09,2.54 -7.67,3.81 -13.72,3.81 -6.31,0 -10.9,-1.15 -13.78,-3.46 -2.89,-2.31 -4.33,-5.1 -4.33,-8.36 0,-2.83 1.02,-5.15 3.06,-6.98 2.01,-1.83 7.25,-3.7 15.72,-5.62 8.47,-1.91 14.28,-3.59 17.43,-5.02 4.59,-2.11 7.97,-4.79 10.16,-8.03 2.18,-3.24 3.28,-6.98 3.28,-11.21 0,-4.19 -1.2,-8.14 -3.6,-11.84 -2.4,-3.71 -5.85,-6.59 -10.35,-8.65 -4.49,-2.06 -9.55,-3.09 -15.18,-3.09 -7.12,0 -13.1,1.04 -17.91,3.11 -4.82,2.08 -8.6,5.21 -11.34,9.38 -2.74,4.17 -4.18,8.89 -4.33,14.16 l 9.84,0.86 c 0.46,-3.94 1.55,-7.18 3.25,-9.7 1.7,-2.53 4.34,-4.57 7.92,-6.13 3.58,-1.56 7.61,-2.33 12.09,-2.33 3.98,0 7.49,0.59 10.53,1.77 3.05,1.18 5.31,2.8 6.8,4.86 1.49,2.06 2.23,4.31 2.23,6.74 0,2.48 -0.72,4.63 -2.15,6.48 -1.43,1.84 -3.8,3.39 -7.09,4.65 -2.12,0.82 -6.79,2.1 -14.03,3.84 -7.23,1.74 -12.3,3.37 -15.2,4.91 -3.76,1.98 -6.57,4.42 -8.41,7.34 -1.85,2.92 -2.77,6.19 -2.77,9.81 0,3.97 1.13,7.69 3.39,11.14 2.25,3.46 5.55,6.08 9.88,7.88 4.34,1.79 9.16,2.68 14.46,2.68 z" class="iSZqAghU_2"></path><path id="path24" style="fill: none; stroke: rgb(255, 255, 255); stroke-width: 0.75; stroke-linecap: round; stroke-linejoin: bevel; stroke-miterlimit: 10; stroke-opacity: 1;" d="m 190.05,182.1 h 10.43 l 11.87,-33.04 c 1.54,-4.19 2.92,-8.6 4.14,-13.22 1.11,4.44 2.43,8.78 3.97,13 l 12.2,33.26 h 9.67 l -21.7,-58.03 c -2.33,-6.27 -4.14,-10.58 -5.43,-12.95 -1.72,-3.18 -3.69,-5.52 -5.91,-7.01 -2.22,-1.48 -4.87,-2.23 -7.95,-2.23 -1.87,0 -3.94,0.4 -6.24,1.18 l -1.07,9.08 c 2.11,-0.57 3.96,-0.86 5.53,-0.86 2.15,0 3.87,0.36 5.16,1.08 1.29,0.72 2.35,1.72 3.17,3.01 0.61,0.97 1.6,3.37 2.96,7.2 0.18,0.54 0.46,1.32 0.86,2.36 z m -85.28,21.71 h 15.69 l 18.64,-55.77 c 1.72,-5.2 2.97,-9.08 3.76,-11.66 0.9,2.86 2.29,7.07 4.19,12.62 l 18.86,54.81 h 14.03 v -78.77 h -10.05 v 65.93 L 147,125.04 h -9.4 l -22.79,67.06 v -67.06 h -10.04 z m 505.5,-28.37 c -4.44,0 -8.18,-1.49 -11.21,-4.46 -3.02,-2.97 -4.7,-6.95 -5.02,-11.93 h 31.86 c -0.43,4.8 -1.64,8.4 -3.65,10.8 -3.08,3.73 -7.08,5.59 -11.98,5.59 z m -232.32,0 c -4.44,0 -8.18,-1.49 -11.21,-4.46 -3.02,-2.97 -4.7,-6.95 -5.02,-11.93 h 31.86 c -0.43,4.8 -1.64,8.4 -3.65,10.8 -3.08,3.73 -7.08,5.59 -11.98,5.59 z m 129.4,6.66 h 9.67 v -57.06 h -9.67 z m -60.99,0 h 10.21 l 12.25,-34.17 c 1.32,-3.69 2.54,-7.52 3.65,-11.5 0.86,3.01 2.06,6.63 3.6,10.85 l 12.68,34.82 h 9.94 l -21.6,-57.06 h -9.03 z m 220.21,1.29 c 4.47,0 8.4,-0.64 11.79,-1.93 3.38,-1.29 5.88,-3.04 7.49,-5.24 1.62,-2.2 2.73,-5.15 3.34,-8.84 l -9.46,-1.29 c -0.43,2.94 -1.68,5.23 -3.73,6.88 -2.06,1.65 -4.97,2.47 -8.74,2.47 -4.44,0 -7.61,-0.74 -9.51,-2.2 -1.89,-1.47 -2.84,-3.19 -2.84,-5.16 0,-1.26 0.39,-2.38 1.18,-3.39 0.79,-1.04 2.02,-1.9 3.71,-2.58 0.96,-0.35 3.81,-1.18 8.54,-2.47 6.84,-1.82 11.61,-3.32 14.32,-4.48 2.7,-1.17 4.82,-2.86 6.36,-5.08 1.55,-2.22 2.32,-4.98 2.32,-8.28 0,-3.22 -0.94,-6.26 -2.83,-9.1 -1.88,-2.85 -4.59,-5.05 -8.14,-6.61 -3.54,-1.56 -7.55,-2.34 -12.03,-2.34 -7.42,0 -13.07,1.54 -16.95,4.62 -3.89,3.08 -6.37,7.65 -7.44,13.7 l 9.56,1.51 c 0.54,-3.84 2.03,-6.77 4.49,-8.81 2.45,-2.05 5.88,-3.07 10.28,-3.07 4.45,0 7.74,0.91 9.89,2.72 2.15,1.8 3.23,3.93 3.23,6.36 0,2.19 -0.95,3.91 -2.85,5.16 -1.33,0.86 -4.62,1.95 -9.89,3.28 -7.09,1.79 -12.01,3.34 -14.75,4.65 -2.74,1.3 -4.82,3.11 -6.23,5.42 -1.42,2.31 -2.12,4.87 -2.12,7.66 0,2.54 0.58,4.9 1.74,7.07 1.17,2.16 2.75,3.96 4.76,5.4 1.5,1.11 3.55,2.05 6.15,2.82 2.6,0.77 5.38,1.15 8.36,1.15 z m -56.41,0 c 7.63,0 13.86,-2.6 18.7,-7.79 4.83,-5.19 7.25,-12.5 7.25,-21.92 0,-0.57 -0.02,-1.43 -0.05,-2.58 H 593.5 c 0.36,-6.27 2.13,-11.07 5.32,-14.4 3.19,-3.33 7.17,-5 11.93,-5 3.55,0 6.57,0.93 9.08,2.8 2.51,1.86 4.5,4.83 5.97,8.92 l 9.99,-1.24 c -1.58,-5.84 -4.5,-10.37 -8.76,-13.59 -4.26,-3.23 -9.71,-4.84 -16.33,-4.84 -8.35,0 -14.97,2.57 -19.86,7.71 -4.89,5.14 -7.33,12.35 -7.33,21.63 0,9.6 2.47,17.05 7.41,22.35 4.95,5.3 11.36,7.95 19.24,7.95 z m -55.46,0 c 6.2,0 11.27,-1.57 15.21,-4.7 3.94,-3.13 6.47,-7.59 7.58,-13.35 l -9.41,-1.45 c -0.89,3.83 -2.48,6.71 -4.75,8.65 -2.28,1.93 -5.03,2.9 -8.25,2.9 -4.87,0 -8.83,-1.75 -11.87,-5.24 -3.05,-3.49 -4.57,-9.02 -4.57,-16.58 0,-7.66 1.47,-13.23 4.4,-16.71 2.94,-3.47 6.77,-5.21 11.5,-5.21 3.8,0 6.97,1.17 9.51,3.5 2.55,2.32 4.16,5.91 4.84,10.74 l 9.51,-1.23 c -1.04,-6.56 -3.7,-11.69 -7.98,-15.4 -4.28,-3.71 -9.54,-5.56 -15.77,-5.56 -7.81,0 -14.09,2.55 -18.83,7.66 -4.75,5.1 -7.12,12.42 -7.12,21.95 0,6.16 1.02,11.55 3.06,16.17 2.04,4.62 5.15,8.09 9.32,10.4 4.18,2.31 8.72,3.46 13.62,3.46 z m -118.13,0 c 3.26,0 6.57,-1.04 9.94,-3.12 l -3.33,-8.97 c -2.37,1.4 -4.73,2.1 -7.1,2.1 -2.11,0 -4.01,-0.64 -5.69,-1.91 -1.68,-1.27 -2.88,-3.04 -3.6,-5.29 -1.08,-3.44 -1.61,-7.2 -1.61,-11.29 v -29.87 h -9.67 v 57.06 h 8.7 v -8.65 c 2.22,4.05 4.27,6.72 6.15,8.01 1.88,1.29 3.95,1.93 6.21,1.93 z m -58.73,0 c 7.63,0 13.86,-2.6 18.7,-7.79 4.83,-5.19 7.25,-12.5 7.25,-21.92 0,-0.57 -0.02,-1.43 -0.05,-2.58 h -42.56 c 0.36,-6.27 2.13,-11.07 5.32,-14.4 3.19,-3.33 7.17,-5 11.93,-5 3.55,0 6.57,0.93 9.08,2.8 2.51,1.86 4.5,4.83 5.97,8.92 l 9.99,-1.24 c -1.58,-5.84 -4.5,-10.37 -8.76,-13.59 -4.26,-3.23 -9.71,-4.84 -16.33,-4.84 -8.35,0 -14.97,2.57 -19.86,7.71 -4.89,5.14 -7.33,12.35 -7.33,21.63 0,9.6 2.47,17.05 7.41,22.35 4.95,5.3 11.36,7.95 19.24,7.95 z m 129.51,20.42 h 9.67 v -11.12 h -9.67 z m -197.83,1.34 c 5.84,0 10.98,-0.94 15.44,-2.82 4.46,-1.88 7.89,-4.65 10.29,-8.3 2.4,-3.65 3.69,-7.79 3.87,-12.41 l -9.99,-0.75 c -0.54,4.97 -2.36,8.74 -5.46,11.28 -3.09,2.54 -7.67,3.81 -13.72,3.81 -6.31,0 -10.9,-1.15 -13.78,-3.46 -2.89,-2.31 -4.33,-5.1 -4.33,-8.36 0,-2.83 1.02,-5.15 3.06,-6.98 2.01,-1.83 7.25,-3.7 15.72,-5.62 8.47,-1.91 14.28,-3.59 17.43,-5.02 4.59,-2.11 7.97,-4.79 10.16,-8.03 2.18,-3.24 3.28,-6.98 3.28,-11.21 0,-4.19 -1.2,-8.14 -3.6,-11.84 -2.4,-3.71 -5.85,-6.59 -10.35,-8.65 -4.49,-2.06 -9.55,-3.09 -15.18,-3.09 -7.12,0 -13.1,1.04 -17.91,3.11 -4.82,2.08 -8.6,5.21 -11.34,9.38 -2.74,4.17 -4.18,8.89 -4.33,14.16 l 9.84,0.86 c 0.46,-3.94 1.55,-7.18 3.25,-9.7 1.7,-2.53 4.34,-4.57 7.92,-6.13 3.58,-1.56 7.61,-2.33 12.09,-2.33 3.98,0 7.49,0.59 10.53,1.77 3.05,1.18 5.31,2.8 6.8,4.86 1.49,2.06 2.23,4.31 2.23,6.74 0,2.48 -0.72,4.63 -2.15,6.48 -1.43,1.84 -3.8,3.39 -7.09,4.65 -2.12,0.82 -6.79,2.1 -14.03,3.84 -7.23,1.74 -12.3,3.37 -15.2,4.91 -3.76,1.98 -6.57,4.42 -8.41,7.34 -1.85,2.92 -2.77,6.19 -2.77,9.81 0,3.97 1.13,7.69 3.39,11.14 2.25,3.46 5.55,6.08 9.88,7.88 4.34,1.79 9.16,2.68 14.46,2.68 z" class="iSZqAghU_3"></path></g><style data-made-with="vivus-instant">.iSZqAghU_0{stroke-dasharray:2185 2187;stroke-dashoffset:2186;animation:iSZqAghU_draw 6980ms ease-in 0ms forwards;}.iSZqAghU_1{stroke-dasharray:2809 2811;stroke-dashoffset:2810;animation:iSZqAghU_draw 6980ms ease-in 6ms forwards;}.iSZqAghU_2{stroke-dasharray:3299 3301;stroke-dashoffset:3300;animation:iSZqAghU_draw 6980ms ease-in 13ms forwards;}.iSZqAghU_3{stroke-dasharray:3299 3301;stroke-dashoffset:3300;animation:iSZqAghU_draw 6980ms ease-in 20ms forwards;}@keyframes iSZqAghU_draw{100%{stroke-dashoffset:0;}}@keyframes iSZqAghU_fade{0%{stroke-opacity:1;}96.42857142857143%{stroke-opacity:1;}100%{stroke-opacity:0;}}</style></svg>